<?xml version="1.0" encoding="UTF-8" standalone="no"?>
<svg
   xmlns:dc="http://purl.org/dc/elements/1.1/"
   xmlns:cc="http://creativecommons.org/ns#"
   xmlns:rdf="http://www.w3.org/1999/02/22-rdf-syntax-ns#"
   xmlns:svg="http://www.w3.org/2000/svg"
   xmlns="http://www.w3.org/2000/svg"
   viewBox="0 0 266.66666 266.66666"
   height="266.66666"
   width="266.66666"
   id="svg51"
   version="1.1">
  <metadata
     id="metadata57">
    <rdf:RDF>
      <cc:Work
         rdf:about="">
        <dc:format>image/svg+xml</dc:format>
        <dc:type
           rdf:resource="http://purl.org/dc/dcmitype/StillImage" />
        <dc:title></dc:title>
      </cc:Work>
    </rdf:RDF>
  </metadata>
  <defs
     id="defs55" />
  <g
     transform="translate(1.5979811,-0.79899127)"
     id="g61">
    <path
       id="path75"
       d="m 134.3333,259.89318 c -1.28335,-0.74748 -3.25947,-3.14995 -4.39137,-5.33881 -1.74394,-3.3724 -1.81627,-5.20855 -0.47393,-12.03154 2.99571,-15.2269 -0.50533,-39.22356 -10.31977,-70.73329 l -4.84147,-15.54377 -5.17718,-0.49372 c -5.11742,-0.48803 -5.23795,-0.39143 -10.443082,8.37011 C 80.325765,195.02785 51.026171,199.06012 23.486294,174.47134 5.1675999,158.11564 0.92571675,147.94581 9.4356335,140.78518 c 6.5572955,-5.5176 11.7943595,-4.74105 18.7775175,2.78431 20.325248,21.90339 30.420932,26.39371 40.145249,17.85564 8.289699,-7.27845 11.412121,-15.32817 16.973873,-43.75927 5.548703,-28.364402 5.555781,-28.274541 -2.229975,-28.312112 -9.342484,-0.04508 -16.117372,10.622854 -17.311373,27.258992 -0.85712,11.94233 -2.561735,16.36122 -7.245852,18.78347 -4.513989,2.33427 -6.699912,2.41691 -11.084748,0.41904 -5.975355,-2.72255 -7.874085,-9.20844 -7.132741,-24.3648 1.049242,-21.451142 7.793851,-35.320904 21.377024,-43.960181 11.089164,-7.053019 19.402947,-9.22433 32.856402,-8.581113 18.20096,0.870199 32.09659,8.461429 57.95123,31.658955 8.43237,7.565768 11.36334,9.431886 14.81393,9.431886 5.27459,0 12.65295,-4.792114 20.75437,-13.479592 5.19858,-5.574639 6.80898,-6.520407 11.10256,-6.520407 6.40225,0 12.81689,5.854347 12.81689,11.697384 0,8.022294 -16.11481,24.606608 -30.47833,31.366308 -10.795,5.08029 -22.9077,5.56288 -32.44012,1.29247 l -6.25177,-2.80074 -0.68827,3.55562 c -4.04925,20.91892 -4.02677,23.48884 0.32516,37.17308 9.1531,28.78102 12.57232,46.93161 12.63078,67.04921 0.0512,17.62312 -1.71011,25.38184 -6.64272,29.26184 -3.71559,2.92268 -10.2939,3.52733 -14.12142,1.29801 z m 85.38989,-2.99565 c -8.26777,-2.61607 -16.36366,-9.30096 -19.85579,-16.39523 -4.24674,-8.62725 -4.34978,-21.40823 -0.2359,-29.25992 3.63624,-6.94008 11.95699,-14.45973 18.32611,-16.56173 8.24432,-2.72087 20.72514,-1.21216 28.19937,3.4088 23.46999,14.51037 18.52149,50.72901 -8.00741,58.60725 -7.7544,2.30281 -11.64914,2.34525 -18.42638,0.20083 z M 132.6115,53.568431 C 106.84745,41.508519 116.46,3.2721407 144.66782,5.6113529 c 24.25586,2.0114844 31.9502,32.5305071 11.69979,46.4063121 -6.18192,4.235923 -16.57088,4.914099 -23.75611,1.550766 z"
       style="fill:#cecece;stroke-width:1.33333325" />
    <path
       id="path73"
       d="m 135.07006,259.73727 c -4.76299,-2.30122 -7.45927,-9.45381 -5.8068,-15.4041 4.07742,-14.68203 -0.85087,-46.93675 -12.22338,-79.99984 -2.26688,-6.59047 -3.44223,-8.33715 -5.61979,-8.35153 -1.51438,-0.01 -3.95343,-0.33352 -5.42009,-0.7189 -2.16181,-0.56802 -3.40071,0.7146 -6.543926,6.7749 -5.274788,10.17009 -13.759557,19.27766 -22.324947,23.96362 -6.064278,3.31766 -8.636998,3.90858 -17.19678,3.94994 -9.048427,0.0437 -11.120151,-0.47235 -20.500125,-5.10663 -16.325635,-8.06587 -34.0837937,-26.78828 -34.0959047,-35.94729 -0.00701,-5.30479 6.5016167,-11.56411 12.0246987,-11.56411 3.553239,0 5.983919,1.79409 15.102563,11.14727 17.214798,17.65756 26.996825,20.94524 36.574454,12.29242 8.011117,-7.23756 10.915,-14.84121 16.523629,-43.26613 5.569877,-28.228515 5.579858,-28.114339 -2.461364,-28.153142 -9.643471,-0.04653 -16.01078,10.448662 -17.740424,29.241432 -0.960176,10.43242 -1.355586,11.54694 -5.368799,15.13275 -3.523851,3.14856 -5.109264,3.71569 -8.496014,3.03919 -7.384838,-1.47514 -10.41283,-5.939 -11.165631,-16.46039 -1.358268,-18.98356 5.321234,-39.946049 15.395419,-48.315922 15.065225,-12.516548 34.354766,-16.419005 52.429911,-10.60707 11.66323,3.750227 24.36505,12.005731 41.7194,27.115362 11.1466,9.704834 13.93302,11.500897 17.84261,11.500897 6.00695,0 11.55936,-3.524506 19.90252,-12.633522 5.75856,-6.28717 7.44183,-7.366477 11.48856,-7.366477 3.0792,0 6.04233,1.118983 8.45216,3.191823 8.22806,7.077483 3.14452,18.721889 -14.10072,32.299249 -13.82023,10.88082 -29.89912,14.03813 -44.06976,8.65371 -7.80532,-2.9658 -7.09688,-4.00081 -9.48364,13.85522 l -1.60401,12 4.8962,15.33333 c 10.36177,32.44983 14.68085,67.8221 10.23409,83.81497 -2.81192,10.11317 -10.35115,14.46037 -18.36411,10.58897 z m 89.5966,-1.99969 c -11.47539,-2.48736 -19.99015,-8.71139 -25.05346,-18.31331 -3.91734,-7.42869 -3.86742,-20.58932 0.10733,-28.28101 3.58216,-6.93212 12.01346,-14.24197 18.75744,-16.26252 13.2716,-3.97626 25.42814,-0.60756 34.339,9.51569 10.72084,12.17954 11.31128,28.44332 1.4996,41.3071 -5.88064,7.70992 -21.1004,13.8872 -29.64986,12.03405 z m -92,-204.257639 c -19.96418,-9.214066 -20.18653,-35.455627 -0.38645,-45.6096985 9.16649,-4.7008519 19.59407,-2.9803516 27.54544,4.5448695 8.03945,7.608575 10.23451,17.406551 6.11071,27.276182 -3.98175,9.529667 -13.60526,16.250139 -23.2697,16.250139 -2.56666,0 -7.06666,-1.107672 -10,-2.461492 z"
       style="fill:#afafaf;stroke-width:1.33333325" />
    <path
       id="path71"
       d="m 133.33757,257.66666 c -4.43106,-4.02375 -4.44741,-4.14071 -3.18094,-22.76153 0.51177,-7.52451 0.2118,-16.46791 -0.76025,-22.66667 C 126.0469,190.87901 115.7357,156 112.77073,156 c -0.9739,0 -3.49573,-0.33531 -5.60407,-0.74511 -3.5595,-0.69189 -4.11562,-0.19907 -7.785162,6.89912 -5.074166,9.81523 -16.128428,21.12059 -24.307047,24.85919 -4.716233,2.15586 -8.918226,2.92272 -15.917603,2.9049 C 50.872559,189.897 48.3359,189.2459 39.472966,184.86561 23.612769,177.02708 5.3505325,157.87854 5.3383173,149.07434 c -0.00709,-5.11353 5.0505077,-10.34737 10.8983677,-11.27813 4.74536,-0.75528 5.282376,-0.39653 16.666666,11.13385 17.886802,18.11636 26.967624,20.97595 36.635281,11.5366 2.89162,-2.82333 6.689874,-8.13333 8.440566,-11.8 3.340845,-6.9971 13.407988,-55.755477 11.986664,-58.055229 -1.247844,-2.019053 -11.07218,-1.488323 -14.542664,0.785627 -4.611664,3.021678 -8.72231,13.845862 -10.384249,27.343882 -1.693015,13.7504 -4.496904,17.79239 -12.342421,17.79239 -9.499753,0 -13.541609,-8.82361 -12.197101,-26.627 1.47398,-19.517783 8.135893,-33.198245 19.996873,-41.064246 9.796493,-6.496868 16.296863,-8.918113 26.225796,-9.768533 20.055364,-1.717756 36.064204,5.802785 62.611234,29.413143 6.23333,5.543794 12.83333,10.604169 14.66667,11.24528 5.81808,2.034556 11.74808,-0.730918 21.11586,-9.84745 4.88628,-4.755214 10.24579,-8.992515 11.91002,-9.416225 4.68314,-1.192314 10.97587,2.111576 13.29849,6.982141 1.79762,3.769667 1.83189,4.956572 0.25374,8.787288 -2.69389,6.538982 -18.20253,21.162762 -27.3111,25.752822 -10.6606,5.37216 -24.01605,6.23895 -33.24283,2.15751 -3.4727,-1.53614 -6.75758,-2.51884 -7.29974,-2.18377 -0.54215,0.33507 -1.748,6.78785 -2.67967,14.33951 -1.65589,13.42177 -1.61616,13.97654 1.76795,24.68916 9.84661,31.17001 13.40117,51.83598 12.59836,73.24597 -0.65088,17.35857 -2.43643,22.79622 -8.37383,25.50148 -5.32208,2.4249 -8.277,1.9424 -12.69968,-2.07375 z m 81.99576,-2.82088 c -7.70574,-3.50945 -14.8287,-12.0328 -17.37463,-20.79051 -8.69814,-29.92056 27.73116,-53.31721 51.43072,-33.03128 23.1012,19.77379 9.66536,56.39004 -20.65121,56.28006 -4.91032,-0.0179 -10.16036,-0.9806 -13.40488,-2.45827 z M 135.57997,54.644187 c -17.03345,-5.112736 -23.39328,-26.487332 -11.9334,-40.106627 12.20715,-14.50737209 34.84908,-10.7036381 42.28979,7.104478 7.85462,18.798758 -10.65074,38.916974 -30.35639,33.002149 z"
       style="fill:#8e8e8e;stroke-width:1.33333325" />
    <path
       id="path69"
       d="m 133.45081,257.89425 -4.08712,-3.43908 0.82852,-17.56092 c 0.98431,-20.863 -1.59566,-37.01389 -10.22397,-64.00316 l -5.32639,-16.66089 -5.5995,-0.94603 c -4.05312,-0.68477 -5.75686,-0.47397 -6.16929,0.76329 -0.31337,0.94014 -3.662905,6.26406 -7.443401,11.83094 -19.429017,28.60974 -47.710798,29.54109 -75.505947,2.4865 C 8.4458542,159.19286 4.8101839,153.20668 5.9176003,147.30364 c 0.6344717,-3.38203 2.1299218,-5.53436 5.1547477,-7.41899 6.774489,-4.22085 10.983091,-2.58875 20.558245,7.97257 8.562041,9.44387 18.261387,16.50414 24.75395,18.01867 7.548405,1.76084 17.577174,-6.81415 22.917512,-19.59539 2.535203,-6.06758 11.746629,-53.917025 10.704195,-55.603721 -0.456664,-0.738896 -3.554161,-1.343448 -6.883328,-1.343448 -5.047324,0 -6.693361,0.685476 -9.906973,4.125659 -4.541072,4.861233 -7.35678,13.50994 -8.640841,26.54113 C 63.383442,132.09365 60.600357,136 53.175952,136 45.269426,136 41.815336,131.90096 40.693412,121.18672 38.075543,96.186382 49.101407,73.436222 68.33548,64.151612 92.50895,52.482672 117.11959,59.653048 148,87.362084 c 6.23333,5.593179 13.02006,11.059235 15.08164,12.146791 5.73369,3.024735 11.8877,0.265001 23.12333,-10.369556 5.63692,-5.335356 10.82232,-9.139321 12.45833,-9.139321 4.82999,0 10.32123,3.747741 11.82913,8.07333 2.0714,5.942035 -0.6134,11.427315 -10.22532,20.891152 -16.22338,15.97346 -33.18421,21.12821 -49.70206,15.1055 -4.46551,-1.62821 -8.26879,-2.76004 -8.45175,-2.51518 -0.18294,0.24486 -1.22778,6.72684 -2.32186,14.4044 l -1.98924,13.9592 4.56548,14.0408 c 7.54449,23.20256 11.04362,40.49761 11.87769,58.70746 0.96637,21.09817 -0.74807,30.50305 -6.4324,35.28609 -5.10616,4.29656 -9.20631,4.27986 -14.36216,-0.0585 z m 81.57709,-3.35418 c -6.42707,-3.18134 -13.17211,-10.29732 -15.86137,-16.73361 -1.00825,-2.41312 -1.81629,-8.15676 -1.79564,-12.76364 0.15055,-33.5747 44.49228,-43.64456 60.36856,-13.70949 3.91189,7.37594 3.9094,20.63256 -0.005,28 -3.64206,6.85441 -10.40614,13.31094 -16.69136,15.93242 -7.18632,2.99732 -19.16886,2.66308 -26.01492,-0.72568 z M 135.49318,54.355383 C 123.4623,51.171763 115.32643,36.404687 118.70025,23.875255 121.48455,13.535156 132.74845,5.2963088 144,5.3700517 c 5.1692,0.033879 13.73894,4.4758046 17.68676,9.1675083 11.93428,14.183089 5.1476,35.028115 -13.0201,39.990733 -6.10482,1.667572 -6.22422,1.666006 -13.17348,-0.17291 z"
       style="fill:#6f6f6f;stroke-width:1.33333325" />
    <path
       id="path67"
       d="m 136.41106,260.01591 c -6.08095,-2.50917 -7.55097,-7.01084 -6.07213,-18.59489 1.79233,-14.03973 0.0193,-30.64943 -5.61311,-52.58288 -6.19964,-24.14236 -9.42745,-32.35724 -13.10085,-33.342 -6.70658,-1.7979 -8.20144,-0.95725 -12.943615,7.27899 -6.382379,11.08495 -14.793552,19.48001 -23.52029,23.47524 -10.262859,4.69849 -24.296529,4.12252 -35.827733,-1.47045 -10.241109,-4.96724 -31.8769262,-26.01671 -33.2503868,-32.34927 -1.3002639,-5.99508 2.0182393,-11.8172 7.8285748,-13.73479 6.085396,-2.00836 7.543613,-1.14484 21.066978,12.47538 11.935498,12.02097 20.346607,16.62318 27.225503,14.89669 4.652688,-1.16775 11.664462,-8.58141 15.759714,-16.663 C 81.83537,141.76458 91.691518,92.491518 89.738779,90.538779 87.57829,88.37829 79.028706,88.789419 75.299103,91.23315 70.208122,94.568888 66.482329,104.11678 64.62769,118.58021 62.814804,132.71803 60.561292,136 52.666665,136 c -10.133231,0 -13.628329,-9.85712 -11.110054,-31.33334 2.36752,-20.190547 11.12749,-32.853514 28.263245,-40.8559 8.631695,-4.030996 10.625725,-4.436041 21.513475,-4.37002 9.198829,0.05579 13.806339,0.780642 19.738229,3.105252 10.37227,4.064726 24.36928,13.653026 38.92348,26.663562 6.59728,5.897546 13.60348,11.076086 15.56934,11.507856 5.05434,1.11012 11.02642,-2.284906 20.74055,-11.790646 6.96087,-6.811541 9.05888,-8.126766 12.96355,-8.126766 6.69905,0 11.39818,4.771827 11.39818,11.574525 0,4.700104 -0.99507,6.269235 -9.60947,15.153307 -16.82553,17.35225 -33.40499,22.77243 -50.54299,16.5236 -4.43754,-1.618 -8.24407,-2.74149 -8.45895,-2.49663 -0.21488,0.24486 -1.27021,6.67151 -2.34517,14.28144 l -1.9545,13.83624 4.38759,13.82574 c 13.50091,42.54271 16.54725,84.46015 6.79933,93.55787 -3.6146,3.37348 -8.64785,4.5623 -12.53144,2.95982 z m 78.86777,-5.83841 c -16.49762,-7.68229 -22.80979,-26.55923 -14.47433,-43.28633 12.86507,-25.81683 50.4806,-21.86964 58.68352,6.15796 3.57888,12.22825 -0.16447,24.09028 -10.35491,32.8129 -9.53313,8.16002 -22.14557,9.76775 -33.85428,4.31547 z M 137.78698,54.670415 C 126.20371,52.055544 118.35897,42.401383 118.35897,30.76125 c 0,-22.3494463 26.06671,-33.3159633 41.79789,-17.58478 17.14439,17.144388 1.15431,46.804422 -22.36988,41.493945 z"
       style="fill:#505050;stroke-width:1.33333325" />
    <path
       id="path65"
       d="m 134.98172,258.66333 c -5.40219,-3.28527 -6.3109,-7.09758 -4.3609,-18.29526 2.6595,-15.27201 -1.16618,-39.04766 -11.5373,-71.70141 -3.77276,-11.87865 -5.58842,-14 -11.98257,-14 -3.95,0 -4.74078,0.6935 -7.900084,6.92808 -4.978628,9.82484 -16.578807,21.52248 -24.887859,25.09694 -5.678457,2.4428 -8.599319,2.84792 -16.9214,2.34692 C 43.217274,188.18529 33.273293,182.91338 19.051913,168.7124 6.8319533,156.50997 4.5013884,152.30486 6.6085025,146.26038 c 1.8491838,-5.30457 5.0518815,-7.5003 11.0143635,-7.55132 4.472028,-0.0383 5.954745,0.99663 15.177708,10.59356 10.011118,10.41704 20.609394,17.36971 26.461217,17.35906 4.741899,-0.008 11.141025,-4.97199 16.164214,-12.53746 4.329226,-6.52029 5.4044,-10.06065 10.035981,-33.04676 2.853018,-14.15927 5.191214,-27.019129 5.195992,-28.577462 0.01173,-3.814262 -6.550792,-5.137675 -12.711699,-2.563484 -7.827443,3.270514 -11.982875,12.497796 -13.514801,30.010066 -0.687848,7.86317 -1.509666,10.58615 -3.923517,13 -4.36405,4.36406 -11.621341,4.14748 -15.904961,-0.47461 -3.028482,-3.26779 -3.269668,-4.53601 -3.269668,-17.19289 0,-28.152605 9.633547,-44.143302 31.806904,-52.796188 5.510061,-2.150236 10.384082,-2.939764 18.193095,-2.947043 18.174339,-0.01695 32.153269,6.776504 54.843119,26.652526 7.22395,6.328077 14.48684,12.391723 16.13977,13.474767 5.52623,3.620918 11.48416,1.152108 22.52154,-9.33233 8.68621,-8.251042 10.64664,-9.502803 14.70268,-9.387831 6.70451,0.190046 11.12622,4.740844 11.12622,11.451051 0,4.793622 -0.936,6.19853 -10.50464,15.767168 -17.02802,17.02804 -31.58644,21.76203 -48.91941,15.90725 -4.83301,-1.63251 -8.98268,-2.76576 -9.22147,-2.51833 -0.23878,0.24743 -1.35289,6.66307 -2.4758,14.25698 l -2.04165,13.8071 3.9254,12.01214 c 11.44213,35.0143 15.67249,65.80455 11.73489,85.41128 -2.3616,11.75928 -9.96664,16.62193 -18.18226,11.62571 z m 82.41063,-3.43316 c -7.97496,-3.45952 -13.57085,-8.68514 -16.85614,-15.7408 -11.73759,-25.20822 10.63506,-52.04975 36.96224,-44.34536 24.16489,7.07162 31.16614,37.48153 12.42696,53.97642 -9.08764,7.99926 -22.4098,10.50118 -32.53306,6.10974 z M 130.14652,51.513313 C 119.31872,44.95901 115.37651,30.34299 121.30314,18.725836 128.60102,4.4208224 148.3372,1.6705365 160,13.333333 c 11.18216,11.182157 8.96172,30.083721 -4.45791,37.948146 -7.78501,4.562321 -18.0862,4.65636 -25.39557,0.231834 z"
       style="fill:#303030;stroke-width:1.33333325" />
    <path
       id="path63"
       d="m 132.4473,256.56851 c -3.18516,-3.18517 -3.3483,-3.9269 -2.27272,-10.33333 2.03938,-12.14713 0.93693,-31.26401 -2.75132,-47.70874 -3.77706,-16.84067 -10.74131,-39.43151 -12.99182,-42.1432 -0.78354,-0.94412 -3.69389,-1.71658 -6.46742,-1.71658 -4.73087,0 -5.3026,0.46035 -9.242838,7.44207 -5.419223,9.60233 -13.653531,18.48356 -21.311157,22.98547 -5.305221,3.11892 -7.518035,3.57246 -17.429768,3.57246 -10.092704,0 -12.313021,-0.4749 -19.999999,-4.27778 -9.781617,-4.83914 -20.51824,-13.77434 -28.144669,-23.4225 -6.5357253,-8.26832 -7.1260415,-15.23337 -1.655778,-19.53628 6.764286,-5.32078 10.534974,-3.92372 22.53491,8.34934 11.436553,11.69686 19.822627,16.88722 27.284694,16.88722 3.627681,0 5.69443,-1.24872 10.753085,-6.49698 8.068191,-8.37062 10.438689,-14.99154 16.209855,-45.27498 L 91.619666,90.45606 88.157039,89.139572 C 76.374485,84.659853 66.292201,96.39953 64.527184,116.65386 c -1.004974,11.5325 -1.61479,13.76707 -4.5611,16.71339 -3.975832,3.97583 -10.079404,3.39123 -14.897528,-1.4269 l -4.059646,-4.05965 0.625868,-15.60702 c 0.433189,-10.80225 1.374409,-17.454172 3.057306,-21.607016 7.957247,-19.635898 25.904685,-31.45688 47.307914,-31.1591 16.898182,0.235103 32.015742,7.729953 53.436812,26.492434 14.73367,12.905048 18.26635,15.317192 22.44604,15.326312 4.81244,0.0105 13.35027,-5.541575 20.28363,-13.19028 5.28101,-5.825864 6.86925,-6.802699 11.06061,-6.802699 3.41845,0 5.8809,0.98679 8.16684,3.272727 6.41002,6.41002 3.34757,14.276076 -10.40237,26.719072 -11.49647,10.4037 -20.5482,14.47986 -32.3249,14.55647 -6.92917,0.0451 -11.0178,-0.70879 -15.87272,-2.92662 -3.59665,-1.64303 -6.68942,-2.83005 -6.8728,-2.63782 -0.18338,0.19223 -1.29774,6.86534 -2.47636,14.82913 l -2.14293,14.47964 4.11581,12.84872 c 12.46639,38.91749 16.47227,74.70552 10.07568,90.01472 -3.42872,8.20606 -12.89228,10.2329 -19.04604,4.07914 z m 85.89069,-1.17658 c -21.01479,-8.05946 -27.71721,-33.28776 -13.314,-50.1147 13.92064,-16.26313 39.11187,-14.54749 50.30934,3.42631 3.60158,5.78113 4,7.51529 4,17.41037 0,10.08208 -0.33376,11.46459 -4.04124,16.73968 -8.25715,11.74848 -24.57615,17.28544 -36.9541,12.53834 z M 132.66666,52.776855 c -8.45662,-3.774682 -14,-12.529339 -14,-22.110189 0,-6.694835 1.97418,-11.75546 6.41816,-16.452368 5.24928,-5.5480458 9.9299,-7.5476315 17.66743,-7.5476315 13.84157,0 23.91441,10.0457115 23.91441,23.8500225 0,7.799522 -1.98913,12.472651 -7.54762,17.731819 -6.80508,6.438617 -17.91267,8.340113 -26.45238,4.528347 z"
       style="fill:#000000;stroke-width:1.33333325" />
  </g>
</svg>
